<svg xmlns="http://www.w3.org/2000/svg" viewBox="0 0 510.74 211">
  <defs>
    <style>
      .cls-1 {
        fill: #0071bc;
      }

      .cls-2 {
        fill: none;
      }
    </style>
  </defs>
  <title>Asset 3</title>
  <g id="Layer_2" data-name="Layer 2">
    <g id="Layer_1-2" data-name="Layer 1">
      <g>
        <path class="cls-1" d="M166.73,131.49c2.33-11.12,4.6-21.71,19.09-21.71,9,0,11.52,4.95,9.25,14h-8.61c1.16-5.59.64-7.68-2-7.68-4.95,0-6.58,4.66-8.85,15.42s-2.68,15.42,2.27,15.42c4.07,0,5.06-5.24,5.88-8.55h8.67c-2.39,11.23-7.68,14.84-15.89,14.84C162.07,153.2,164.4,142.49,166.73,131.49Z"/>
        <path class="cls-1" d="M212.41,110.48l-8.9,42H195.3l8.9-42Z"/>
        <path class="cls-1" d="M219.69,152.5h-8.21l6.23-29.39h8.21Zm8.9-42-1.34,6.46H219l1.34-6.46Z"/>
        <path class="cls-1" d="M240.12,126.08h.12a9.21,9.21,0,0,1,7.68-3.55,5.77,5.77,0,0,1,5.82,3.72,10.82,10.82,0,0,1,8.38-3.72c3.9,0,6.87,2.33,6,6.4l-5,23.57H254.9l4.31-20.25c.58-2.62.52-4.66-2.09-4.66s-3.49,2-4.07,4.66l-4.31,20.25h-8L245,132.24c.58-2.62.52-4.66-2.1-4.66s-3.49,2-4.07,4.66l-4.31,20.25h-8.21l6.23-29.39h8.21Z"/>
        <path class="cls-1" d="M277.89,110.48h8.21l-3.26,15.42H283a9,9,0,0,1,7.39-3.38c8.26,0,6.11,9.14,4.83,15.07s-3,15.48-11.46,15.48c-3.14,0-5.24-1-6.11-3.84h-.12l-.7,3.26H269Zm9.31,27.06c1.22-5.88,2.15-10-1.4-10-3.38,0-4.19,4.07-5.41,10-1.57,7.39-1.75,10.48,1,10.48C284.4,148,285.63,144.93,287.2,137.54Z"/>
        <path class="cls-1" d="M306.52,143.07a10,10,0,0,0-.35,3.55c.29.93,1,1.4,2.68,1.4a3.69,3.69,0,0,0,3.67-3c1.34-6.23-13.39-4.83-11.41-14.2,1.34-6.34,8-8.26,13.33-8.26,5.59,0,10.13,2.68,8.32,9h-8c.41-2,.41-3.26-.06-3.78a2.22,2.22,0,0,0-1.92-.64,3.5,3.5,0,0,0-3.49,3.14c-1,4.66,13.5,4.42,11.52,13.85-1.11,5.12-6.11,9-12.92,9-7.16,0-11.58-1.8-9.37-10Z"/>
      </g>
      <g>
        <path class="cls-1" d="M215.1,107.12c-10.88,0-11.52-6.4-9.54-13.68h8.79c-.81,4-1.4,7.39,3.43,7.39,3,0,4.83-1.92,5.47-4.77,1.57-7.57-16-8-13.33-20.54,1.4-6.58,5.65-11.81,16.35-11.81,8.56,0,12,3.84,9.54,12.63h-8.56c.64-3.14.81-6.34-2.74-6.34a5.21,5.21,0,0,0-5.47,4.48c-1.69,8,16.12,7.27,13.33,20.49C230.06,105.84,221.79,107.12,215.1,107.12Z"/>
        <path class="cls-1" d="M249.85,77l-.7,3.26h.12A8.87,8.87,0,0,1,257,76.45c8.5,0,6.23,9.43,4.95,15.48S259,107,250.72,107c-3,0-4.83-.87-6-3.38h-.12l-3.26,15.42h-8.21L242,77ZM254,91.47c1.22-5.88,2.15-10-1.4-10-3.38,0-4.19,4.07-5.41,10-1.57,7.39-1.75,10.48,1,10.48C251.24,101.94,252.47,98.86,254,91.47Z"/>
        <path class="cls-1" d="M267.42,91.35c1.69-8,4.31-14.9,15.13-14.9s10.53,6.87,8.85,14.9c-2,9.2-4.71,15.66-15.31,15.66S265.45,100.54,267.42,91.35Zm15.89-.47c1.28-6.11,1.63-9.19-1.86-9.19s-4.42,3.08-5.7,9.19c-1.92,9-1.57,10.88,1.46,10.88S281.39,99.85,283.31,90.88Z"/>
        <path class="cls-1" d="M308,77l-.76,3.78h.12a9.31,9.31,0,0,1,8.5-4.37l-1.51,7.33c-7.16-.47-8.15,3.72-8.79,6.63l-3.38,16H294L300.25,77Z"/>
        <path class="cls-1" d="M316.31,77h3.32l1-4.66,9-3.67L327.83,77h4.25l-1,5.06h-4.25l-3.38,15.71c-.47,2.21-.81,3.67,1.86,3.67a5.63,5.63,0,0,0,1.45-.12l-1,5.06a34.76,34.76,0,0,1-4.31.29c-7.1,0-7-4.71-6.63-6.52l3.84-18.1h-3.32Z"/>
      </g>
      <g>
        <path class="cls-1" d="M413.71,55.49l-14.49,68.7C396.13,138.69,384.59,154,359.9,154c-22.27,0-30.46-11.54-26.57-29.79l14.49-68.7h20.26l-14.22,67.36c-2.55,11.94,1.48,16.64,8.86,16.64,8.86,0,14.22-5.9,16.5-16.64l14.22-67.36Z"/>
        <path class="cls-1" d="M473.28,55.49h22.27L459.33,99,475,152.37H452.22L439.6,102.72h-.27l-10.6,49.65H408.47L429,55.49h20.26L440.54,97h.27Z"/>
      </g>
      <path class="cls-1" d="M53,104.5A57.56,57.56,0,0,0,110,162H482.25L478,182H110l-1,0A77.48,77.48,0,0,1,109,27l1,0H510.74l-4.22,20H110A57.56,57.56,0,0,0,53,104.5Z"/>
      <path class="cls-1" d="M110,182h-1v0Z"/>
      <path class="cls-1" d="M110,27h0l-1,0v0Z"/>
      <g>
        <path class="cls-2" d="M110,47V162a57.49,57.49,0,0,1,0-115Z"/>
        <path class="cls-2" d="M110,0V27l-1,0A77.48,77.48,0,0,0,109,182l1,0v29H0V0Z"/>
      </g>
      <path class="cls-1" d="M109,61a44,44,0,1,0,44,44A44,44,0,0,0,109,61Zm0,68a24,24,0,1,1,24-24A24,24,0,0,1,109,129Z"/>
    </g>
  </g>
</svg>
