<svg id="visual" viewBox="0 0 900 600" width="900" height="600" xmlns="http://www.w3.org/2000/svg" xmlns:xlink="http://www.w3.org/1999/xlink" version="1.1"><rect x="0" y="0" width="900" height="600" fill="#27292b"></rect><path d="M0 289L64 153L129 181L193 231L257 248L321 290L386 303L450 268L514 264L579 249L643 263L707 303L771 192L836 239L900 223L900 601L836 601L771 601L707 601L643 601L579 601L514 601L450 601L386 601L321 601L257 601L193 601L129 601L64 601L0 601Z" fill="#562c2c"></path><path d="M0 276L64 297L129 311L193 213L257 206L321 223L386 331L450 348L514 254L579 252L643 276L707 266L771 227L836 333L900 326L900 601L836 601L771 601L707 601L643 601L579 601L514 601L450 601L386 601L321 601L257 601L193 601L129 601L64 601L0 601Z" fill="#4e2d26"></path><path d="M0 268L64 324L129 333L193 298L257 386L321 358L386 383L450 373L514 359L579 302L643 385L707 297L771 307L836 297L900 378L900 601L836 601L771 601L707 601L643 601L579 601L514 601L450 601L386 601L321 601L257 601L193 601L129 601L64 601L0 601Z" fill="#462f23"></path><path d="M0 418L64 337L129 326L193 430L257 391L321 392L386 396L450 364L514 332L579 359L643 329L707 390L771 434L836 386L900 342L900 601L836 601L771 601L707 601L643 601L579 601L514 601L450 601L386 601L321 601L257 601L193 601L129 601L64 601L0 601Z" fill="#3e2f22"></path><path d="M0 411L64 396L129 402L193 392L257 479L321 424L386 380L450 388L514 444L579 444L643 422L707 458L771 437L836 469L900 409L900 601L836 601L771 601L707 601L643 601L579 601L514 601L450 601L386 601L321 601L257 601L193 601L129 601L64 601L0 601Z" fill="#362f23"></path><path d="M0 483L64 497L129 449L193 447L257 493L321 486L386 508L450 521L514 460L579 484L643 474L707 520L771 462L836 517L900 461L900 601L836 601L771 601L707 601L643 601L579 601L514 601L450 601L386 601L321 601L257 601L193 601L129 601L64 601L0 601Z" fill="#302e26"></path><path d="M0 548L64 506L129 550L193 525L257 509L321 513L386 537L450 523L514 524L579 542L643 500L707 532L771 531L836 533L900 559L900 601L836 601L771 601L707 601L643 601L579 601L514 601L450 601L386 601L321 601L257 601L193 601L129 601L64 601L0 601Z" fill="#2c2c29"></path></svg>