<svg xmlns="http://www.w3.org/2000/svg" viewBox="0 0 170.05 174.82">
  <defs>
    <style>
      .cls-1 {
        fill: #ed1c24;
      }
    </style>
  </defs>
  <title>steve-logo</title>
  <g id="Layer_2" data-name="Layer 2">
    <g id="Layer_1-2" data-name="Layer 1">
      <path class="cls-1" d="M8.16,129.35c0,8.09,1.68,11.18,3.77,12.58,3.45,2.3,4.65-.53,4.62-6.37a121.36,121.36,0,0,0-6-36.66C9,94,7.8,92.29,6.49,91.75a6.62,6.62,0,0,0,.36-3.95,3.77,3.77,0,0,0-2.48-2.37C5,83.66,5,80.7,3.78,76.29,2.37,71.33-.06,60.74,0,50.73c.06-9.52,4.08-19.64,11.44-25.61a13.23,13.23,0,0,1,3.85-2,19,19,0,0,0,3.55-1.53,10.37,10.37,0,0,0,2.71-3.5,2.34,2.34,0,0,0,3.8,1.28C24.7,21.21,24.3,26,24.3,29.93c0,6.15,0,9.22,0,15.37,0,6.48.52,9.28,1.58,10.9-3.31,2.69-4.33,5.46-4.33,16.12l-1,.14c0-11.11-.93-12.75-4.22-13.65.88-2.33,1.27-4.56,1.27-11.35,0-3.76,0-5.64,0-9.4,0-5.92-2-7.69-4.77-5.9-2.48,1.63-3.43,5-3.43,9.3a130.08,130.08,0,0,0,2.44,20.73c1.72,8,5.22,19.17,8.58,21.19a5.92,5.92,0,0,0-.77,4.47,2.94,2.94,0,0,0,2.59,2c-.78,2.16-1.07,6,.78,14.12a147.12,147.12,0,0,1,3.82,31.31c.1,11.8-4.19,22.75-13.27,16a26.41,26.41,0,0,1-4.66-4.42,30.31,30.31,0,0,0-3.34-3.55c-1.06-.91-1.53-.74-2.22-.51A17.16,17.16,0,0,0,0,136.78c.68-.45,1.13-1.72,1.13-6.31V115.59c0-3.75-.46-6.59-1.13-7.94,3,.09,4.13-1.11,4.13-9.75L5,98C5,106.49,6.22,108.66,9,110.8c-.6.91-.84,3.31-.84,8.13Z"/>
      <path class="cls-1" d="M50.18,154.05c0,1.93.57,2.72,1.29,2.89s.86-.87.86-2.17c0-2.34,0-3.5,0-5.84l1.29.26c.4,7,.6,10.55,1,17.62-1.44-.36-3.44,1.26-4.16,3a8,8,0,0,0-2.85-2.59,19.25,19.25,0,0,0-3.25-1.51c-1.83-.64-4.34-1-5.45,0a11.74,11.74,0,0,0-4.68-5.64c.66-6,1-9,1.64-15.14l1.1.36v5.25c0,1.62.41,2.37,1,2.57s.55-1,.55-2q0-22.4,0-44.8c0-7.74-1-12.47-2.21-14.11a5.69,5.69,0,0,0,1.38-3.82,6.07,6.07,0,0,0-1.52-4c1.24-1.83,2.35-5.54,2.35-14.7q0-22.61,0-45.21c0-3.66-.69-4.44-1.93-4s-2.2,1.85-2.2,5.43c0,7.32,0,11,0,18.3,0,7.56.41,8.66,1.23,10.5-3.84,2.94-4.77,5.64-4.77,17.3l-.94.1c0-10.24-.83-13.84-4.53-15.18.66-1.09,1.59-4.16,1.59-10.59,0-11.19,0-16.79,0-28,1.33-.7,3.21-3.36,3.89-5.46a2.64,2.64,0,0,0,1.63.57,3.93,3.93,0,0,0,2-.35A9,9,0,0,0,38.08,9.5a4.61,4.61,0,0,0,2.36.47,10.27,10.27,0,0,0,3.5-.68C47.17,8.15,49.6,6.59,50.6,5a8.75,8.75,0,0,0,1.57,1.06,3.54,3.54,0,0,0,2.15.08A6.57,6.57,0,0,0,58.23,3C59,4.81,61,6.38,62.44,6.12q0,16.46,0,32.92c0,7.56,1,10.81,1.75,11.88-4.09,3-4.95,7.26-4.95,19l-1,0c0-13.21-1-16-5-18,.86-2.27,1.29-3.63,1.29-11.91,0-8,0-12,0-20,0-3.92-.86-4.82-2.3-4.46s-2,1.58-2,5.44q0,23.82,0,47.64c0,9.66,1.29,13.92,2.15,15.21A6,6,0,0,0,50.75,88c0,1.72.57,3.45,1.57,4.11-1.29,1.28-2.15,5.54-2.15,15.2Q50.18,130.66,50.18,154.05Z"/>
      <path class="cls-1" d="M81,156.56c0,5.47,1.18,7.13,4.29,7.12,2.81,0,3.7-1.65,3.7-11.67,0-6.56,0-9.84,0-16.4,0-5.24-.15-9.79-1-12.52,4-2.54,5.17-4.64,5.17-18.73h1c0,15,1,16.14,5.15,18.87-1,2.08-1.62,6.41-1.62,12.07,0,8.06,0,12.08,0,20.14,0,11.09.29,12.42,1.32,14.12-1.18.58-3.53,2.83-4,4.23a9,9,0,0,0-2.06-1,8,8,0,0,0-2.36-.33,10.43,10.43,0,0,0-4.14,1.25,9.44,9.44,0,0,1-4.58,1.11c-1.77,0-3.25-1-4.73-1.58a21,21,0,0,0-5-1.33,3.9,3.9,0,0,0-3.67,1.81A10.48,10.48,0,0,0,64,168.34c.53-7.95.79-11.93,1.32-19.93l1.32.15v7.18c0,2.69.15,3.61.88,3.7s1-.78,1-3.25q0-21.61,0-43.21c0-14.63-1.61-20-2.64-22.3a6.64,6.64,0,0,0,1.76-4.49,8.19,8.19,0,0,0-1.76-4.48c1.32-2,2.64-7.68,2.64-18q0-23.29,0-46.59c0-1.8-.15-2.46-.73-2.39s-1,.8-1.17,2.62v7.4l-1.17.14c-.53-7.64-.79-11.45-1.32-19,1.9-.54,3.51-2.33,4.54-4.72a5.47,5.47,0,0,0,2.35,1.28,9.49,9.49,0,0,0,3.53.33A12.53,12.53,0,0,0,79.93,1a6.9,6.9,0,0,1,3.4-1,9.7,9.7,0,0,1,4.14.92c1.18.48,2.37,1.42,4.14,1.52,1,.05,2.51-1,3.54-2C95.59,2.26,97.5,4.47,99,4.86c-.88,1-1.32,4.16-1.32,10.72,0,8.69,0,13,0,21.72,0,5.88.15,9.74,1,12.27-4.12,2.51-4.86,5.48-4.86,18.43l-1.18,0c0-12.51-1-16-5.17-18.74,1-2,1.48-5,1.48-12.51,0-5.56,0-8.34,0-13.9,0-8-1.18-11.45-4-11.45-2.51,0-4,2.57-4,11.68q0,22.67,0,45.33c0,10,1,10.93,2.66,10.93,1,0,1.77-2.05,1.77-3.42a12,12,0,0,0-.59-3.65,22.8,22.8,0,0,1-.59-5c0-3.65,2.51-6.38,3.84-6.14a9.64,9.64,0,0,0-.59,3.64c0,1.37.59,2.74,2.07,5a13.45,13.45,0,0,1,1.77,6.16,8.69,8.69,0,0,1-2.36,6.37l3.25,4.33L88.8,90.5a11,11,0,0,1,2.51,7.28,12,12,0,0,1-1.77,6.39c-1.92,2.75-2.81,4.12-2.81,5.71a8.48,8.48,0,0,0,.89,3.87c-1.77.47-3.7-1.81-3.7-5.92a21,21,0,0,1,.89-5.93,13.68,13.68,0,0,0,.59-4.33c0-2.05-1.18-3.42-2.07-3.42-2.37,0-2.37,3-2.37,15.71Q81,133.21,81,156.56Z"/>
      <path class="cls-1" d="M109.65,116.54c-.87-19.86-2.47-22.31-3.93-24.53a6.62,6.62,0,0,0,1.46-4.25,4.92,4.92,0,0,0-1.75-3.8c1.17-2,2.19-4.43,1.9-10.89q-1-26.74-2-53.49c-.15-3.37-.58-3.88-1.17-4s-.88.56-.88,1.68v8.3l-1.17-.12c-.88-8-1.32-12-2.2-20.06,1.91.22,3.81-2,4.25-3.91a7.66,7.66,0,0,0,2.34,2,11.8,11.8,0,0,0,3.64,1.36c2.47.51,5.21.53,6.07-.76a6.32,6.32,0,0,0,4.15,4.83V28.18l-1.14-.25-.43-6.34c-.14-2.19-.43-2.9-.86-3s-.43.76-.43,2.71q.71,21.81,1.43,43.62c.29,10.79,1.57,15.34,3,17.5a9,9,0,0,0-1.71,4.9,8,8,0,0,0,1.57,4.48c-.71,1.29-1.14,4.3-1,8.57.23,8.37.34,12.55.57,20.89l1-.13c.23-8.54.34-12.79.57-21.29.14-5.1-.28-7-.71-8a7.48,7.48,0,0,0,1.42-4.47,11.73,11.73,0,0,0-1.28-4.89c1.14-2.53,1.84-7.14,2.12-12q1.26-23,2.53-46.07c.14-2.46.14-3.71-.7-4-.42-.13-.84.38-1,2.23l-.56,6.58-1.41-.35V9.81a3.22,3.22,0,0,0,3.81-2.26,8.46,8.46,0,0,0,2,2.19,9,9,0,0,0,2.5,1.61c1.66.68,3.45.86,4.27-.15a9.79,9.79,0,0,0,3.8,5.34c-.59,6.46-.89,9.73-1.49,16.33l-1.22-.43V26.33c0-1.38-.27-2.08-.68-2.24s-.55.38-.68,1.72q-1.25,21.46-2.47,42.93c-.55,8.83-.14,12.73.83,14.36a5.86,5.86,0,0,0-1.79,4,6,6,0,0,0,2.07,4.42c-1.24,1.23-2.62,4.31-3.18,13.14q-1.9,29.09-3.77,58.18c-1.12.4-2.81,3.27-3.24,5.53a2.23,2.23,0,0,0-1.84-1.09,9.06,9.06,0,0,0-2.85.44,6.21,6.21,0,0,0-4.3,3.34c-.43-1.85-2.16-3.85-3.18-3.63Q110.73,142,109.65,116.54Z"/>
      <path class="cls-1" d="M155.26,138.72c0,4.06,1,4.64,3.6,2.89,2.33-1.58,3-3.22,3-10.07v-11.2c0-3.58-.12-6.63-.84-8.27,3.26-2.82,4.17-4.42,4.17-13.6l.82-.14c0,9.65.86,10.23,4,10.69-.79,1.55-1.25,4.41-1.25,7.89,0,5,0,7.44,0,12.4,0,6.83.23,7.48,1,7.83a24.42,24.42,0,0,0-3.09,5.27,9.91,9.91,0,0,0-1.63.73,15.17,15.17,0,0,0-1.89,1.32,28.16,28.16,0,0,0-3.37,3.51,21.6,21.6,0,0,1-3.82,3.72,14,14,0,0,1-4,1.78,28.35,28.35,0,0,0-4.39,2,8.94,8.94,0,0,0-3.28,3.76c-.53-1.39-2.66-2.16-4-1.88.48-7.18.73-10.75,1.21-17.82l1.2-.46v6.07c0,2.27.13,3,.8,2.67s.93-1.19.93-3.24V108.66c0-12.16-1.46-16.59-2.39-18.48a5.49,5.49,0,0,0,1.6-3.8,6.9,6.9,0,0,0-1.6-3.82c1.2-1.67,2.39-6.27,2.39-14.88V28.94c0-1.5-.13-2.12-.66-2.37s-.93.13-1.06,1.59v6.26L141.64,34c-.48-6.76-.72-10.17-1.21-17a3.26,3.26,0,0,0,4.13-1.22,13.27,13.27,0,0,0,2.11,2.52,18.84,18.84,0,0,0,3.12,2.43,14.66,14.66,0,0,0,4.59,2,7.66,7.66,0,0,1,2.87,1.42,22.19,22.19,0,0,1,3.43,3.32A32.17,32.17,0,0,0,164,31.1a4.87,4.87,0,0,0,2.81,1,15.37,15.37,0,0,0,3,5.32c-.68,0-1,1.69-1,5.73V56.56c0,3.62.12,6.06.8,7.87-3.17.28-3.8,2.1-3.8,10.46l-.94-.19c0-8.19-.79-10.66-4.18-13.76.85-1.12,1.21-3,1.21-8.12V43.31c0-5.45-.95-8.5-3.28-10.07-2.09-1.41-3.35-.32-3.35,6.44V73.31c0,7.44.88,8.17,2.24,8.27.87.06,1.48-1.35,1.48-2.32a8,8,0,0,0-.49-2.65,15.06,15.06,0,0,1-.49-3.67c0-2.62,2.09-4.09,3.17-3.66a5,5,0,0,0-.48,2.41c0,.95.49,2,1.69,3.76a9.13,9.13,0,0,1,1.43,4.33,5,5,0,0,1-1.91,4.14c1.06,1.23,1.58,1.83,2.62,3-1.09,1-1.63,1.54-2.74,2.63a6.41,6.41,0,0,1,2,4.78,8,8,0,0,1-1.43,4.47c-1.56,2.11-2.29,3.23-2.29,4.35a4.35,4.35,0,0,0,.73,2.53c-1.45.67-3.06-.59-3.06-3.54a14.13,14.13,0,0,1,.74-4.36,8.92,8.92,0,0,0,.49-3.13c0-1.46-1-2.37-1.73-2.32-2,.11-2,2.31-2,11.77Z"/>
    </g>
  </g>
</svg>
